<svg xmlns="http://www.w3.org/2000/svg" viewBox="0 0 256 256">
  <defs>
    <filter id="shadow" x="-20%" y="-20%" width="140%" height="140%">
      <feDropShadow dx="0" dy="8" stdDeviation="10" flood-color="#d8caa9" flood-opacity=".35"/>
    </filter>
    <radialGradient id="bg" cx="50%" cy="38%" r="72%">
      <stop offset="0" stop-color="#fffef7"/>
      <stop offset="1" stop-color="#f4efe1"/>
    </radialGradient>
    <linearGradient id="gold" x1="0" x2="1" y1="0" y2="1">
      <stop offset="0" stop-color="#f5d06d"/>
      <stop offset="1" stop-color="#c9912d"/>
    </linearGradient>
  </defs>
  <rect x="18" y="18" width="220" height="220" rx="38" fill="url(#bg)" filter="url(#shadow)"/>
  <g fill="#fffdf4" stroke="url(#gold)" stroke-linecap="round" stroke-linejoin="round" stroke-width="7">
    <path d="M79 105c-18-16-24-40-6-51 13-7 29 5 37 19 13-28 53-42 63-19 8-6 31-4 35 15 15 2 28 14 29 31 16 10 6 31-10 36 9 22-8 43-31 39-7 19-27 23-43 12-13 15-37 15-50 0-20 7-38-6-37-27-21-9-20-36 2-43z"/>
    <path d="M63 94c-22-10-43 2-41 24 2 18 23 21 37 11" fill="#fff7e5"/>
    <path d="M193 94c22-10 43 2 41 24-2 18-23 21-37 11" fill="#fff7e5"/>
    <path d="M81 174c-19 25-9 51 17 48 8 11 28 10 34-3 12 8 29 4 35-9 19 3 32-15 22-35"/>
    <path d="M187 169c28 3 48 24 48 50 0 17-13 22-27 12-10 11-31 4-31-12"/>
  </g>
  <g fill="none" stroke="url(#gold)" stroke-linecap="round" stroke-linejoin="round" stroke-width="5" opacity=".75">
    <path d="M104 64c-13 9-17 26-7 39"/>
    <path d="M126 63c-14 11-17 31 1 43"/>
    <path d="M149 67c-4 14-14 24-29 29"/>
    <path d="M72 124c-12 3-20 12-22 25"/>
    <path d="M196 124c12 3 20 12 22 25"/>
    <path d="M93 190c-7 12-7 22 3 30"/>
    <path d="M126 191c-7 12-7 23 2 31"/>
    <path d="M210 188c-10 8-13 21-8 34"/>
  </g>
  <circle cx="103" cy="118" r="12" fill="#4b250d"/>
  <circle cx="153" cy="118" r="12" fill="#4b250d"/>
  <circle cx="108" cy="113" r="4" fill="#fff"/>
  <circle cx="158" cy="113" r="4" fill="#fff"/>
  <path d="M123 132c2-3 8-3 10 0-1 4-8 4-10 0z" fill="#f2a15c"/>
  <path d="M121 140c4 7 11 7 15 0" fill="none" stroke="#5c300e" stroke-width="4" stroke-linecap="round"/>
  <circle cx="83" cy="134" r="14" fill="#f6d9aa" opacity=".45"/>
  <circle cx="173" cy="134" r="14" fill="#f6d9aa" opacity=".45"/>
  <g fill="url(#gold)" opacity=".9">
    <ellipse cx="202" cy="184" rx="6" ry="10" transform="rotate(-35 202 184)"/>
    <ellipse cx="216" cy="199" rx="5" ry="8" transform="rotate(-35 216 199)"/>
    <ellipse cx="197" cy="205" rx="5" ry="8" transform="rotate(-35 197 205)"/>
  </g>
</svg>